<?xml version="1.0" encoding="UTF-8" standalone="no"?>
<!-- Generator: Adobe Illustrator 22.0.1, SVG Export Plug-In . SVG Version: 6.00 Build 0)  -->

<svg
   version="1.1"
   id="Layer_1"
   x="0px"
   y="0px"
   viewBox="0 0 735 852"
   style="enable-background:new 0 0 735 852;"
   xml:space="preserve"
   sodipodi:docname="vivainsights-py.svg"
   inkscape:version="1.2 (dc2aedaf03, 2022-05-15)"
   inkscape:export-filename="..\vivainsights-py.png"
   inkscape:export-xdpi="299.97171"
   inkscape:export-ydpi="299.97171"
   xmlns:inkscape="http://www.inkscape.org/namespaces/inkscape"
   xmlns:sodipodi="http://sodipodi.sourceforge.net/DTD/sodipodi-0.dtd"
   xmlns:xlink="http://www.w3.org/1999/xlink"
   xmlns="http://www.w3.org/2000/svg"
   xmlns:svg="http://www.w3.org/2000/svg"
   xmlns:rdf="http://www.w3.org/1999/02/22-rdf-syntax-ns#"
   xmlns:cc="http://creativecommons.org/ns#"
   xmlns:dc="http://purl.org/dc/elements/1.1/"><metadata
   id="metadata458"><rdf:RDF><cc:Work
       rdf:about=""><dc:format>image/svg+xml</dc:format><dc:type
         rdf:resource="http://purl.org/dc/dcmitype/StillImage" /><dc:title>broom</dc:title></cc:Work></rdf:RDF></metadata><defs
   id="defs456"><clipPath
     id="clip0"><path
       d="M1173 22 1264 22 1264 69 1173 69Z"
       fill-rule="evenodd"
       clip-rule="evenodd"
       id="path2" /></clipPath><clipPath
     id="clip1"><path
       d="M1173 23 1264 23 1264 68 1173 68Z"
       fill-rule="evenodd"
       clip-rule="evenodd"
       id="path5" /></clipPath><clipPath
     id="clip3"><path
       d="M0 0 90 0 90 45 0 45Z"
       fill-rule="evenodd"
       clip-rule="evenodd"
       id="path9" /></clipPath><clipPath
     clipPathUnits="userSpaceOnUse"
     id="clipPath50"><path
       d="M 0,96 H 96 V 0 H 0 Z"
       id="path48"
       inkscape:connector-curvature="0" /></clipPath><linearGradient
     id="paint2_linear_21_2203"
     x1="425.026"
     y1="462.32999"
     x2="292.76901"
     y2="141.61501"
     gradientUnits="userSpaceOnUse"
     gradientTransform="translate(110.32377,126.91631)"><stop
       stop-color="#283B73"
       id="stop157" /><stop
       offset="1"
       stop-color="#436DCD"
       id="stop159" /></linearGradient><linearGradient
     id="paint1_linear_21_2203"
     x1="6.30621"
     y1="123.579"
     x2="160.121"
     y2="345.83401"
     gradientUnits="userSpaceOnUse"
     gradientTransform="translate(110.32377,126.91631)"><stop
       offset="0.1947"
       stop-color="#4A6DC4"
       id="stop152" /><stop
       offset="0.9988"
       stop-color="#16296F"
       id="stop154" /></linearGradient><linearGradient
     id="paint0_linear_21_2203"
     x1="133.99001"
     y1="-15.0064"
     x2="334.98199"
     y2="297.51001"
     gradientUnits="userSpaceOnUse"
     gradientTransform="translate(110.32377,126.91631)"><stop
       offset="0.176282"
       stop-color="#98BEF5"
       id="stop147" /><stop
       offset="0.94425"
       stop-color="#3F6FD1"
       id="stop149" /></linearGradient><linearGradient
     inkscape:collect="always"
     xlink:href="#linearGradient4671"
     id="linearGradient1475"
     gradientUnits="userSpaceOnUse"
     gradientTransform="matrix(0.562541,0,0,0.567972,778.22602,480.94983)"
     x1="150.96111"
     y1="192.35176"
     x2="112.03144"
     y2="137.27299" /><linearGradient
     id="linearGradient4671"><stop
       style="stop-color:#ffd43b;stop-opacity:1;"
       offset="0"
       id="stop4673" /><stop
       style="stop-color:#ffe873;stop-opacity:1"
       offset="1"
       id="stop4675" /></linearGradient><linearGradient
     inkscape:collect="always"
     xlink:href="#linearGradient4689"
     id="linearGradient1478"
     gradientUnits="userSpaceOnUse"
     gradientTransform="matrix(0.562541,0,0,0.567972,778.22602,480.94983)"
     x1="26.648937"
     y1="20.603781"
     x2="135.66525"
     y2="114.39767" /><linearGradient
     id="linearGradient4689"><stop
       style="stop-color:#5a9fd4;stop-opacity:1;"
       offset="0"
       id="stop4691" /><stop
       style="stop-color:#306998;stop-opacity:1;"
       offset="1"
       id="stop4693" /></linearGradient></defs><sodipodi:namedview
   pagecolor="#ffffff"
   bordercolor="#666666"
   borderopacity="1"
   objecttolerance="10"
   gridtolerance="10"
   guidetolerance="10"
   inkscape:pageopacity="0"
   inkscape:pageshadow="2"
   inkscape:window-width="1606"
   inkscape:window-height="1002"
   id="namedview454"
   showgrid="false"
   inkscape:zoom="0.78346102"
   inkscape:cx="308.88582"
   inkscape:cy="480.55996"
   inkscape:window-x="1"
   inkscape:window-y="0"
   inkscape:window-maximized="0"
   inkscape:current-layer="Layer_1"
   inkscape:showpageshadow="2"
   inkscape:pagecheckerboard="0"
   inkscape:deskcolor="#d1d1d1" />
<style
   type="text/css"
   id="style2">
	.st0{fill:#ED7D15;}
	.st1{opacity:0.25;fill:url(#SVGID_1_);enable-background:new    ;}
	.st2{fill:#AC5D12;}
	.st3{fill:#E6B35A;}
	.st4{fill:#E5B259;}
	.st5{fill:#FFFFFF;}
	.st6{stroke:#000000;stroke-width:10;stroke-miterlimit:10;}
	.st7{fill:none;stroke:#000000;stroke-width:0.75;stroke-miterlimit:10;}
</style>
<path
   class="st0"
   d="M18.2,627.4V224.1l51.6-29.8L367.5,22.5l0,0l296.7,171.3l52.6,30.3v403.3L367.5,829L18.2,627.4z"
   id="path4"
   style="fill:#4a91ca;fill-opacity:1" />
<title
   id="title6">broom</title>
<linearGradient
   id="SVGID_1_"
   gradientUnits="userSpaceOnUse"
   x1="366.1355"
   y1="974.39"
   x2="367.4355"
   y2="510.87"
   gradientTransform="matrix(1 0 0 -1 0 852)">
	<stop
   offset="0"
   style="stop-color:#638fe0;stop-opacity:1;"
   id="stop8" />
	<stop
   offset="0.56"
   style="stop-color:#FFFFFF;stop-opacity:0.37"
   id="stop10" />
	<stop
   offset="1"
   style="stop-color:#FFFFFF;stop-opacity:0"
   id="stop12" />
</linearGradient>
<path
   class="st1"
   d="M366.9,340.4c128.2,0,238.6-57,287.8-138.8L367.5,35.8l0,0L79.4,202.2C128.8,283.7,238.9,340.4,366.9,340.4z"
   id="path15" />
<path
   class="st2"
   d="M734.9,637.4V213.1l-29.3-16.9L427.8,35.8L367.5,1l-60.3,34.8L29.4,196.2L0.1,213.1v424.2l29.3,16.9  l281.3,162.4l56.9,32.8l56.9-32.8l281.3-162.4L734.9,637.4z M29.4,621.5V231l50-28.9L367.5,35.8l0,0l287.2,165.8l50.9,29.4v390.5  L367.5,816.7L29.4,621.5z"
   id="path17"
   style="fill:#dfbe00;fill-opacity:1" />
<path
   class="st3"
   d="m 367,623.9 c 0.3,-0.3 0.6,-0.6 0.9,-0.9 h -0.3 c -0.1,0.3 -0.3,0.6 -0.6,0.9 z"
   id="path19" />
<path
   class="st4"
   d="m 367,623.9 c 0.3,-0.3 0.6,-0.6 0.9,-0.9 h -0.3 c -0.1,0.3 -0.3,0.6 -0.6,0.9 z"
   id="path21" />























































































































































































































<flowRoot
   xml:space="preserve"
   id="flowRoot4163"
   style="font-style:normal;font-weight:normal;font-size:66.6667px;line-height:1.25;font-family:sans-serif;letter-spacing:0px;word-spacing:0px;fill:#ffffff;fill-opacity:1;stroke:none"
   transform="matrix(1.44,0,0,1.44,7.27975,-244.75955)"><flowRegion
     id="flowRegion4165"
     style="fill:#ffffff;fill-opacity:1"><rect
       id="rect4167"
       width="562.88696"
       height="113.5985"
       x="71.477707"
       y="545.66693"
       style="fill:#ffffff;fill-opacity:1" /></flowRegion><flowPara
     id="flowPara4169"
     style="font-style:normal;font-variant:normal;font-weight:bold;font-stretch:normal;font-size:66.6667px;font-family:'segoe UI';-inkscape-font-specification:'segoe UI Bold';fill:#ffffff;fill-opacity:1">vivainsights</flowPara></flowRoot><g
   id="g328"
   transform="matrix(0.648,0,0,0.648,125.11663,62.715784)"><circle
     cx="382.32877"
     cy="270.9173"
     r="144.00101"
     fill="url(#paint0_linear_21_2203)"
     id="circle141"
     style="fill:url(#paint0_linear_21_2203)" /><path
     d="m 238.35577,273.69731 c -7.713,-1.812 -15.76,-2.781 -24.032,-2.781 -57.4373,0 -104,46.563 -104,104 0,28.719 11.6407,54.719 30.4611,73.532 18.8203,18.844 44.8205,30.469 73.5389,30.469 l 2.18,-0.031 c 6.36,-0.125 12.578,-0.813 18.608,-2.032 9.955,-2.031 19.392,-5.468 28.109,-10.125 8.276,-4.406 15.899,-9.937 22.696,-16.375 l 47.107,-44.094 c -54.42,-19.844 -93.508,-71.562 -94.668,-132.563 z"
     fill="url(#paint1_linear_21_2203)"
     id="path143"
     style="fill:url(#paint1_linear_21_2203)" /><path
     d="m 285.80077,450.46131 c -18.635,17.638 -43.793,28.455 -71.477,28.455 -30.0994,0 -57.2123,-12.786 -76.2031,-33.224 6.4458,7.659 96.0741,103.867 145.5141,156.787 l 0.009,-0.013 c 20.479,22.399 49.938,36.45 82.678,36.45 33.428,0 63.436,-14.654 83.957,-37.87 l 142.035,-153.038 c 18.555,-18.778 30.009,-44.608 30.009,-73.092 0,-57.437 -46.563,-104 -104.001,-104 -30.059,0 -57.137,12.755 -76.125,33.156 l -81.205,76 v 0.017 l -75.076,70.279 0.103,0.093 z"
     fill="url(#paint2_linear_21_2203)"
     id="path145"
     style="fill:url(#paint2_linear_21_2203)" /></g><g
   id="g601"
   transform="matrix(1.5288238,0,0,1.5288238,-871.34876,-382.94714)"><path
     style="fill:url(#linearGradient1478);fill-opacity:1"
     d="m 848.13592,492.65312 c -4.58365,0.0213 -8.96093,0.41222 -12.8125,1.09375 -11.34621,2.0045 -13.40624,6.2001 -13.40625,13.9375 v 10.21875 h 26.8125 v 3.40625 h -26.8125 -10.0625 c -7.79245,0 -14.61575,4.68372 -16.74999,13.59375 -2.46182,10.21296 -2.57102,16.58602 0,27.25 1.90592,7.93785 6.45754,13.59375 14.24999,13.59375 h 9.21875 v -12.25 c 0,-8.8499 7.65715,-16.65625 16.75,-16.65625 h 26.78125 c 7.45496,0 13.40626,-6.13817 13.40625,-13.625 v -25.53125 c 0,-7.26634 -6.12998,-12.72478 -13.40625,-13.9375 -4.60598,-0.76673 -9.38509,-1.11505 -13.96875,-1.09375 z m -14.5,8.21875 c 2.76955,0 5.03125,2.29865 5.03125,5.125 0,2.81633 -2.2617,5.09375 -5.03125,5.09375 -2.77947,0 -5.03125,-2.27742 -5.03125,-5.09375 0,-2.82635 2.25178,-5.125 5.03125,-5.125 z"
     id="path1948" /><path
     style="fill:url(#linearGradient1475);fill-opacity:1"
     d="m 878.85467,521.30937 v 11.90625 c 0,9.23075 -7.82589,17 -16.75,17 h -26.78125 c -7.33583,0 -13.40624,6.27848 -13.40625,13.625 v 25.53125 c 0,7.26634 6.31859,11.54032 13.40625,13.625 8.48734,2.49561 16.62624,2.94663 26.78125,0 6.75016,-1.95439 13.40626,-5.88761 13.40625,-13.625 v -10.21875 h -26.78125 v -3.40625 h 26.78125 13.40626 c 7.79246,0 10.69625,-5.43541 13.40624,-13.59375 2.79933,-8.39889 2.68022,-16.47578 0,-27.25 -1.92578,-7.75744 -5.60387,-13.59375 -13.40624,-13.59375 z m -15.0625,64.65625 c 2.77948,0 5.03125,2.27742 5.03125,5.09375 0,2.82635 -2.25177,5.125 -5.03125,5.125 -2.76955,0 -5.03125,-2.29865 -5.03125,-5.125 10e-6,-2.81633 2.2617,-5.09375 5.03125,-5.09375 z"
     id="path1950" /></g></svg>
